<?xml version="1.0" encoding="UTF-8" standalone="no"?>
<!DOCTYPE svg PUBLIC "-//W3C//DTD SVG 1.1//EN" "http://www.w3.org/Graphics/SVG/1.1/DTD/svg11.dtd">
<svg width="100%" height="100%" viewBox="0 0 23 23" version="1.1" xmlns="http://www.w3.org/2000/svg" xmlns:xlink="http://www.w3.org/1999/xlink" xml:space="preserve" xmlns:serif="http://www.serif.com/" style="fill-rule:evenodd;clip-rule:evenodd;stroke-linejoin:round;stroke-miterlimit:2;">
    <g transform="matrix(1,0,0,1,-35.834,-486.153)">
        <g transform="matrix(0.046752,0,0,0.046752,35.0859,485.405)">
            <path d="M340.739,82.489C340.739,59.744 322.273,41.279 299.529,41.279L217.109,41.279C194.365,41.279 175.899,59.744 175.899,82.489L175.899,423.215C175.899,445.96 194.365,464.425 217.109,464.425L299.529,464.425C322.273,464.425 340.739,445.96 340.739,423.215L340.739,82.489Z" style="fill:white;"/>
            <path d="M256,16C123.452,16 16,123.452 16,256C16,388.548 123.452,496 256,496C388.549,496 496,388.548 496,256C496,123.452 388.549,16 256,16ZM256,444.583C232.805,444.583 214.002,425.78 214.002,402.585C214.002,379.39 232.805,360.587 256,360.587C279.195,360.587 297.998,379.39 297.998,402.585C297.998,425.78 279.196,444.583 256,444.583ZM297.747,300.588C297.747,317.156 284.315,330.588 267.747,330.588L244.253,330.588C227.685,330.588 214.253,317.156 214.253,300.588L189.253,90.602C189.253,74.034 202.685,60.602 219.253,60.602L292.747,60.602C309.315,60.602 322.747,74.034 322.747,90.602L297.747,300.588Z" style="fill:rgb(255,50,52);fill-rule:nonzero;"/>
        </g>
    </g>
</svg>
