<?xml version="1.0" encoding="UTF-8" standalone="no"?>
<!DOCTYPE svg PUBLIC "-//W3C//DTD SVG 1.1//EN" "http://www.w3.org/Graphics/SVG/1.1/DTD/svg11.dtd">
<svg width="100%" height="100%" viewBox="0 0 24 24" version="1.1" xmlns="http://www.w3.org/2000/svg" xmlns:xlink="http://www.w3.org/1999/xlink" xml:space="preserve" xmlns:serif="http://www.serif.com/" style="fill-rule:evenodd;clip-rule:evenodd;stroke-linejoin:round;stroke-miterlimit:2;">
    <g transform="matrix(1,0,0,1,-35.4776,-249.377)">
        <g transform="matrix(0.183377,0,0,0.183377,35.9772,249.877)">
            <path d="M16.63,105.75C16.64,101.72 18.93,97.78 22.66,93.37L1.09,79.73C-0.27,79.14 -0.24,78.31 0.55,77.33L5.12,73.43C5.95,72.92 6.83,72.7 7.78,72.96L34.4,77.46L56.58,53.44L4.8,18.41C3.49,17.64 3.38,16.77 4.73,15.76L12.2,9.8L79.7,28.77L99.64,7.45C106.33,1.66 112.83,-0.93 117.82,0.3C120.57,0.98 121.54,1.8 122.39,4.38C124.04,9.44 121.48,16.24 115.43,23.24L94.11,43.18L113.08,110.68L107.12,118.15C106.11,119.49 105.24,119.38 104.47,118.08L69.43,66.31L45.41,88.48L49.91,115.1C50.17,116.04 49.96,116.92 49.44,117.76L45.54,122.33C44.57,123.12 43.73,123.15 43.14,121.79L29.5,100.22C25.07,103.96 21.13,106.25 17.08,106.25C16.71,106.24 16.63,106.11 16.63,105.75Z" style="fill:rgb(0,102,182);stroke:rgb(0,102,182);stroke-width:5.45px;"/>
        </g>
    </g>
</svg>
