<?xml version="1.0" encoding="UTF-8" standalone="no"?>
<!DOCTYPE svg PUBLIC "-//W3C//DTD SVG 1.1//EN" "http://www.w3.org/Graphics/SVG/1.1/DTD/svg11.dtd">
<svg width="100%" height="100%" viewBox="0 0 23 16" version="1.1" xmlns="http://www.w3.org/2000/svg" xmlns:xlink="http://www.w3.org/1999/xlink" xml:space="preserve" xmlns:serif="http://www.serif.com/" style="fill-rule:evenodd;clip-rule:evenodd;stroke-linejoin:round;stroke-miterlimit:2;">
    <g transform="matrix(1,0,0,1,-35.8802,-832.686)">
        <g transform="matrix(0.510021,0,0,0.510021,34.8601,827.586)">
            <path d="M14,26C17.31,26 20,23.31 20,20C20,16.69 17.31,14 14,14C10.69,14 8,16.69 8,20C8,23.31 10.69,26 14,26ZM38,14L22,14L22,28L6,28L6,10L2,10L2,40L6,40L6,34L42,34L42,40L46,40L46,22C46,17.58 42.42,14 38,14Z" style="fill:rgb(0,102,182);fill-rule:nonzero;"/>
        </g>
    </g>
</svg>
